<?xml version="1.0" encoding="utf-8"?>
<!-- Generator: Adobe Illustrator 22.0.0, SVG Export Plug-In . SVG Version: 6.00 Build 0)  -->
<svg version="1.1" id="图层_1" xmlns="http://www.w3.org/2000/svg" xmlns:xlink="http://www.w3.org/1999/xlink" x="0px" y="0px"
	 viewBox="0 0 222 222" style="enable-background:new 0 0 222 222;" xml:space="preserve">
<style type="text/css">
	.st0{fill-rule:evenodd;clip-rule:evenodd;fill:#FFFFFF;}
</style>
<g>
	<path class="st0" d="M66.6,155.3c-10.6-10.4-10.3-23.7-4-36.3c-10.6,11.6-13.4,26.4,0.3,40l41.8,41.8l12.9,12.9l3.7-3.7l-16.6-16.5
		L66.6,155.3z"/>
	<path class="st0" d="M88.9,133c-7.6-7.7-7.7-22,0.8-32.3c-0.2,0.2-0.5,0.2-0.8,0.3c-12.9,12.4-11.4,27.9-3.7,35.6l19.5,19.3
		l35.5,35.5l3.5-3.7l-39-39L88.9,133z"/>
	<path class="st0" d="M169.3,60.9c15.3,19.8,3.7,38-9.1,50.1c-10.9,10.1-30.2,18.7-45.5,21.5c-0.3,0-0.8,0.2-1.3,0.2
		c-2.7,0.3-5.4,0.2-8.1-0.5c-0.2,0-0.3,0-0.5,0c-0.5-0.2-1.2-0.5-1.8-0.7c-0.2,0-0.3-0.2-0.5-0.2l2.4,2.4l46.5,46.5l68.7-68.7
		L169.3,60.9z"/>
	<path class="st0" d="M77.8,144.2c-9.4-9.4-8.7-24.7-2-36.1c-0.2,0.3-0.5,0.5-0.8,0.7c-11.8,12.8-11.4,28.6-0.8,39l30.6,30.7
		l24.2,24l3.7-3.7l-27.9-27.7L77.8,144.2z"/>
	<path class="st0" d="M60.5,112.1C71.1,102.2,89.8,94,104.7,91c0.5-0.2,0.8-0.2,1.3-0.3c0.5,0,1-0.2,1.5-0.2
		c2.5-0.3,5.2-0.2,7.9,0.3c1,0.3,2,0.7,2.9,1l-13.6-13.6L69.4,42.9L0.9,111.5l50.6,50.7C36.2,142.4,47.8,124.2,60.5,112.1z"/>
	<path class="st0" d="M143,78.9c9.4,9.4,8.7,24.7,1.8,36c0.3-0.2,0.7-0.3,0.8-0.5c11.9-12.8,11.4-28.6,1-39.2l-42-41.8L92,20.6
		l-3.7,3.5l16.5,16.6L143,78.9z"/>
	<path class="st0" d="M131.8,90.1c7.7,7.7,7.9,22-0.8,32.3c0.3-0.2,0.5-0.3,0.8-0.3c13.1-12.4,11.4-27.9,3.7-35.6l-30.8-30.6
		l-24-24.2L77,35.3l27.7,27.7L131.8,90.1z"/>
	<path class="st0" d="M154.3,67.6c10.3,10.4,10.3,23.7,4,36.5c10.6-11.8,13.3-26.4-0.5-40L104.7,11L103,9.3L99.5,13l5.2,5.2
		L154.3,67.6z"/>
	<path class="st0" d="M104.7,93.2c-6,1.8-11.3,6.7-12.9,13.4c-2.7,10.1,3,20.3,12.9,23.4c0.2,0.2,0.5,0.2,0.7,0.2
		c10.2,2.9,20.8-3.4,23.7-13.6c2.7-10.3-3.5-20.8-13.8-23.7C111.8,92,108.1,92.1,104.7,93.2z"/>
</g>
</svg>
