<?xml version="1.0" encoding="utf-8"?>
<!-- Generator: Adobe Illustrator 22.0.0, SVG Export Plug-In . SVG Version: 6.00 Build 0)  -->
<svg version="1.1" id="图层_1" xmlns="http://www.w3.org/2000/svg" xmlns:xlink="http://www.w3.org/1999/xlink" x="0px" y="0px"
	 viewBox="0 0 99 40" style="enable-background:new 0 0 99 40;" xml:space="preserve">
<style type="text/css">
	.st0{fill-rule:evenodd;clip-rule:evenodd;fill:#FFFFFF;}
</style>
<g>
	<rect x="94.7" y="8.1" class="st0" width="3.5" height="1.7"/>
	<polygon class="st0" points="92.3,21.4 93.1,21.4 93.7,21.4 93.7,12.6 93.1,12.6 92.3,12.6 	"/>
	<path class="st0" d="M94.5,11.3V13h0.9v7.6c0,0.2-0.3,0.6-0.7,0.6h-0.5v1.6h2.1c0.7,0,1.5-1,1.5-2v-0.3V13h0.6v-1.7H94.5z"/>
	<path class="st0" d="M8.1,24.9c-1.3-1.3-1.2-2.9-0.5-4.4c-1.3,1.4-1.6,3.2,0,4.9l5.1,5.1l1.6,1.6l0.5-0.5l-2-2L8.1,24.9z"/>
	<path class="st0" d="M10.8,22.2c-0.9-0.9-0.9-2.7,0.1-3.9c0,0-0.1,0-0.1,0c-1.6,1.5-1.4,3.4-0.5,4.3l2.4,2.4l4.3,4.3l0.4-0.5
		l-4.7-4.7L10.8,22.2z"/>
	<path class="st0" d="M19.5,19.5c-1.3,1.2-3.7,2.3-5.5,2.6c0,0-0.1,0-0.2,0c-0.3,0-0.7,0-1-0.1c0,0,0,0-0.1,0
		c-0.1,0-0.1-0.1-0.2-0.1c0,0,0,0-0.1,0l0.3,0.3l5.7,5.7l8.4-8.4l-6.2-6.2C22.5,15.8,21.1,18,19.5,19.5z"/>
	<path class="st0" d="M9.5,23.5c-1.1-1.1-1.1-3-0.2-4.4c0,0-0.1,0.1-0.1,0.1C7.7,20.8,7.7,22.7,9,24l3.7,3.7l2.9,2.9l0.5-0.5
		l-3.4-3.4L9.5,23.5z"/>
	<path class="st0" d="M7.4,19.6c1.3-1.2,3.6-2.2,5.4-2.6c0.1,0,0.1,0,0.2,0c0.1,0,0.1,0,0.2,0c0.3,0,0.6,0,1,0
		c0.1,0,0.2,0.1,0.3,0.1l-1.7-1.7l-4.3-4.3l-8.3,8.3l6.2,6.2C4.4,23.3,5.8,21.1,7.4,19.6z"/>
	<path class="st0" d="M17.4,15.6c1.1,1.1,1.1,3,0.2,4.4c0,0,0.1,0,0.1-0.1c1.5-1.6,1.4-3.5,0.1-4.8L12.7,10l-1.6-1.6l-0.5,0.4l2,2
		L17.4,15.6z"/>
	<path class="st0" d="M16,16.9c0.9,0.9,1,2.7-0.1,3.9c0,0,0.1,0,0.1,0c1.6-1.5,1.4-3.4,0.5-4.3l-3.7-3.7L9.8,9.8l-0.5,0.5l3.4,3.4
		L16,16.9z"/>
	<path class="st0" d="M18.8,14.2c1.2,1.3,1.2,2.9,0.5,4.4c1.3-1.4,1.6-3.2-0.1-4.9l-6.5-6.5l-0.2-0.2l-0.4,0.5l0.6,0.6L18.8,14.2z"
		/>
	<path class="st0" d="M12.7,17.3c-0.7,0.2-1.4,0.8-1.6,1.6c-0.3,1.2,0.4,2.5,1.6,2.8c0,0,0.1,0,0.1,0c1.2,0.3,2.5-0.4,2.9-1.7
		c0.3-1.2-0.4-2.5-1.7-2.9C13.6,17.2,13.2,17.2,12.7,17.3z"/>
	<path class="st0" d="M40.8,29.3c0,0.5,0,0.8-0.2,0.9c-0.1,0.1-0.3,0.2-0.6,0.2h-0.1v0.6c0.1,0,0.1,0,0.2,0h0.3
		c0.6,0,1.1-0.1,1.4-0.4c0.3-0.2,0.4-0.6,0.4-1.2v-3.1h-1.3V29.3z"/>
	<rect x="38" y="26.4" class="st0" width="1.3" height="4.7"/>
	<polygon class="st0" points="48.7,28.8 47.1,26.4 45.7,26.4 45.7,31.1 46.4,31.1 46.4,27.6 48.6,31.1 49.4,31.1 49.4,26.4 
		48.7,26.4 	"/>
	<polygon class="st0" points="33.4,26.4 33.4,27 35.6,27 33.3,31.1 37.2,31.1 37.2,30.4 35.1,30.4 37.4,26.4 	"/>
	<rect x="43.2" y="26.4" class="st0" width="1.3" height="4.7"/>
	<polygon class="st0" points="57.9,29 59.5,29 59.5,28.4 57.9,28.4 57.9,27 59.5,27 59.5,26.4 56.6,26.4 56.6,31.1 59.6,31.1 
		59.6,30.4 57.9,30.4 	"/>
	<path class="st0" d="M93.1,29v1.3c-0.1,0.1-0.2,0.1-0.4,0.2c-0.1,0-0.3,0.1-0.4,0.1c-0.4,0-0.7-0.2-1-0.5c-0.3-0.3-0.4-0.8-0.4-1.3
		c0-0.6,0.1-1,0.3-1.4c0.2-0.3,0.5-0.5,0.9-0.5c0.3,0,0.5,0.1,0.7,0.2c0.2,0.2,0.4,0.4,0.5,0.7l0.6-0.4c-0.2-0.4-0.5-0.6-0.8-0.8
		c-0.3-0.2-0.7-0.3-1.1-0.3c-0.3,0-0.6,0.1-0.9,0.2c-0.3,0.1-0.5,0.2-0.8,0.4c-0.3,0.2-0.5,0.5-0.6,0.8c-0.1,0.3-0.2,0.7-0.2,1
		c0,0.4,0.1,0.8,0.2,1.1c0.1,0.3,0.3,0.6,0.7,0.8c0.2,0.2,0.5,0.3,0.7,0.4c0.3,0.1,0.6,0.1,0.9,0.1c0.5,0,0.8-0.1,1.2-0.2
		c0.3-0.1,0.7-0.3,1-0.6l0,0l0-1.4H93.1z"/>
	<path class="st0" d="M88.3,26.9c-0.2-0.2-0.5-0.3-0.8-0.4c-0.3-0.1-0.6-0.2-0.9-0.2c-0.3,0-0.6,0-0.9,0.2c-0.3,0.1-0.5,0.2-0.8,0.4
		c-0.2,0.2-0.4,0.5-0.6,0.8c-0.1,0.3-0.2,0.7-0.2,1c0,0.4,0.1,0.7,0.2,1c0.1,0.3,0.3,0.6,0.6,0.8c0.2,0.2,0.5,0.3,0.8,0.5
		c0.3,0.1,0.6,0.2,0.9,0.2c0.3,0,0.6-0.1,0.9-0.2c0.3-0.1,0.6-0.3,0.8-0.5c0.3-0.2,0.5-0.5,0.6-0.8c0.1-0.3,0.2-0.6,0.2-1
		s-0.1-0.7-0.2-1C88.8,27.4,88.6,27.1,88.3,26.9z M87.4,30.1c-0.2,0.3-0.5,0.5-0.8,0.5c-0.3,0-0.6-0.2-0.8-0.5
		c-0.2-0.3-0.3-0.8-0.3-1.4c0-0.6,0.1-1,0.3-1.4c0.2-0.3,0.5-0.5,0.8-0.5c0.3,0,0.6,0.2,0.8,0.5c0.2,0.3,0.3,0.8,0.3,1.4
		C87.7,29.3,87.6,29.8,87.4,30.1z"/>
	<polygon class="st0" points="82.3,26.4 81,26.4 81,31.1 84,31.1 84,30.4 82.3,30.4 	"/>
	<path class="st0" d="M63.7,30.3c-0.2,0.1-0.5,0.2-0.7,0.2c-0.4,0-0.8-0.2-1-0.5c-0.3-0.3-0.4-0.8-0.4-1.3c0-0.6,0.1-1,0.3-1.4
		c0.2-0.3,0.5-0.5,0.9-0.5c0.2,0,0.5,0.1,0.7,0.2c0.2,0.2,0.4,0.4,0.5,0.7l0.6-0.4c-0.2-0.4-0.5-0.6-0.8-0.8
		c-0.3-0.2-0.7-0.3-1.1-0.3c-0.7,0-1.4,0.2-1.8,0.7c-0.5,0.5-0.7,1.1-0.7,1.8c0,0.4,0.1,0.7,0.2,1c0.1,0.3,0.4,0.6,0.7,0.8
		c0.2,0.2,0.5,0.3,0.7,0.4c0.3,0.1,0.6,0.1,0.9,0.1c0.5,0,0.9-0.1,1.3-0.3c0.4-0.2,0.7-0.5,0.8-0.9l-0.6-0.4
		C64.1,29.9,64,30.1,63.7,30.3z"/>
	<polygon class="st0" points="73.7,28.8 72.2,26.4 70.7,26.4 70.7,31.1 71.4,31.1 71.4,27.6 73.7,31.1 74.4,31.1 74.4,26.4 
		73.7,26.4 	"/>
	<polygon class="st0" points="68.3,28.4 66.9,28.4 66.9,26.4 65.6,26.4 65.6,31.1 66.9,31.1 66.9,29 68.3,29 68.3,31.1 69.6,31.1 
		69.6,26.4 68.3,26.4 	"/>
	<path class="st0" d="M79.4,26.9c-0.2-0.2-0.5-0.3-0.8-0.4c-0.3-0.1-0.6-0.2-0.9-0.2c-0.3,0-0.6,0-0.9,0.2c-0.3,0.1-0.6,0.2-0.8,0.4
		c-0.3,0.2-0.5,0.5-0.6,0.8c-0.1,0.3-0.2,0.7-0.2,1c0,0.4,0.1,0.7,0.2,1c0.1,0.3,0.3,0.6,0.6,0.8c0.2,0.2,0.5,0.3,0.8,0.5
		c0.3,0.1,0.6,0.2,0.9,0.2c0.3,0,0.7-0.1,0.9-0.2c0.3-0.1,0.6-0.3,0.8-0.5c0.3-0.2,0.5-0.5,0.6-0.8c0.1-0.3,0.2-0.6,0.2-1
		s-0.1-0.7-0.2-1C79.8,27.4,79.7,27.1,79.4,26.9z M78.5,30.1c-0.2,0.3-0.5,0.5-0.8,0.5c-0.3,0-0.6-0.2-0.8-0.5
		c-0.2-0.3-0.3-0.8-0.3-1.4c0-0.6,0.1-1,0.3-1.4c0.2-0.3,0.5-0.5,0.8-0.5c0.3,0,0.6,0.2,0.8,0.5c0.2,0.3,0.3,0.8,0.3,1.4
		C78.8,29.3,78.7,29.8,78.5,30.1z"/>
	<polygon class="st0" points="52.2,27 53.4,27 53.4,31.1 54.7,31.1 54.7,27 56,27 56,26.4 52.2,26.4 	"/>
	<polygon class="st0" points="96.7,28.2 95.8,26.4 94.4,26.4 94.4,26.5 95.7,28.8 95.7,31.1 97,31.1 97,28.8 98.3,26.4 97.7,26.4 	
		"/>
	<polygon class="st0" points="62,17.3 59.9,20.4 62.1,20.4 62.2,20.4 64.3,17.3 62.1,17.3 	"/>
	<polygon class="st0" points="62,7.9 61.5,7.9 59,7.9 56.1,7.9 53.9,7.9 53,7.9 52.9,8.1 50.2,11.5 52.9,11.5 53.2,11.5 54.8,9.5 
		60.3,9.5 61.9,11.5 62.1,11.5 64.9,11.5 62.1,7.9 	"/>
	<polygon class="st0" points="62.1,22.4 64.2,22.4 64.2,20.9 62.1,20.9 58.9,20.9 58.9,16.7 62.1,16.7 64.2,16.7 64.2,15.2 
		62.1,15.2 58.9,15.2 58.9,13.6 62.1,13.6 64.2,13.6 64.2,12 62.1,12 52.9,12 50.8,12 50.8,13.6 52.9,13.6 56.2,13.6 56.2,15.2 
		52.9,15.2 50.8,15.2 50.8,16.7 52.9,16.7 56.2,16.7 56.2,20.9 52.9,20.9 50.8,20.9 50.8,22.4 52.9,22.4 	"/>
	<polygon class="st0" points="52.9,20.4 55.1,20.4 53,17.3 52.9,17.3 50.7,17.3 52.8,20.4 	"/>
	<polygon class="st0" points="46.1,11.1 48.2,8 46,8 45.9,8 43.8,11.1 46,11.1 	"/>
	<path class="st0" d="M41,13v-1.6c-0.5,0.2-1.1,0.3-1.8,0.4v-1.4H41V8.9h-1.8V7.8H37V12l-1,0.1V8.6h-0.2h-2v3.7c-0.2,0-0.4,0-0.6,0
		v1.6l2.6-0.2C37.7,13.6,39.5,13.4,41,13z"/>
	<polygon class="st0" points="46,19.3 43.8,19.3 45.9,22.4 46,22.4 48.4,22.4 46.3,19.3 	"/>
	<polygon class="st0" points="35.5,19.3 33.4,22.4 35.9,22.4 38,19.3 35.9,19.3 	"/>
	<path class="st0" d="M42,22.6v-4c1.2-0.1,2.1-0.3,2.8-0.9l0.9,1H46h2.3L46,16l-1.2-1.4h-2.6l1.7,1.9c-1.3,0.6-2.6,0.6-5.7,0.6
		l2.1-1.6H38l1.6-1.3h-2.6l-1.2,1l-1.7,1.3h1.7h0.6l-0.6,0.5l-2.2,1.7h2.2h0.4h3.4v3.9H42z"/>
	<path class="st0" d="M43.9,13.8H46h2.4v-1.6H46h-1.4c-0.9,0-0.9-0.4-0.9-0.8V7.8h-2.1v3.8C41.5,13,41.6,13.8,43.9,13.8z"/>
	<polygon class="st0" points="91.9,22.9 91.9,11.6 93,11.6 94.1,11.6 94.1,10 93.7,10 93.7,9 92.3,9 92.3,10 91.9,10 91.9,7.8 
		89.4,7.8 89.4,10 87.4,10 87.4,11.6 89.4,11.6 89.4,22.9 	"/>
	<polygon class="st0" points="89,21.4 89,12.6 88.4,12.6 87.6,12.6 87.6,21.4 88.4,21.4 	"/>
	<polygon class="st0" points="84.2,14.7 84.2,22.9 86.6,22.9 86.6,13.8 85.9,13.8 86.9,10.8 85.8,10.8 86.9,7.8 84.7,7.8 83.3,11.6 
		84.4,11.6 83.3,14.7 	"/>
	<path class="st0" d="M70.7,16l1-0.4v-1.9l-1,0.4v-3.2h1V9.1h-1V7.7h-2.6v1.4h-1.6v1.7h1.6v4.1l-1.6,0.6v1.9l1.6-0.6v3.7
		c0,0.2-0.2,0.7-0.6,0.7H67v1.6h2.3c0.7,0,1.5-1,1.5-2V16z"/>
	<polygon class="st0" points="79,22.9 81.7,22.9 78.1,18.5 81.5,14.3 81.5,12.7 78.3,12.7 78.3,10.8 81.7,10.8 81.7,9.1 78.3,9.1 
		78.3,7.7 75.7,7.7 75.7,9.1 72.4,9.1 72.4,10.8 75.7,10.8 75.7,12.7 72.5,12.7 72.5,14.3 78.9,14.3 76.7,16.9 75.5,15.3 72.8,15.3 
		75.4,18.5 71.8,22.9 74.5,22.9 76.7,20.1 	"/>
</g>
</svg>
